<svg width="253" height="35" viewBox="0 0 253 35" fill="none" xmlns="http://www.w3.org/2000/svg">
<path d="M67.0392 32.5842C67.4504 33.2508 66.9652 34.1012 66.178 34.0939L33.6279 33.7915C32.8806 33.7845 32.3977 33.0018 32.7346 32.3436L47.4069 3.66969C47.7618 2.97617 48.7502 2.94135 49.1614 3.60788L53.3406 10.3816C53.6306 10.8516 54.2495 11.0021 54.7229 10.7176L69.6169 1.76927C70.0903 1.48484 70.7092 1.63529 70.9992 2.10532L78.4181 14.13C78.7081 14.6001 78.5594 15.2117 78.086 15.4961L63.192 24.4445C62.7186 24.7289 62.5699 25.3405 62.8599 25.8105L67.0392 32.5842Z" fill="#00ADEF"/>
<path fill-rule="evenodd" clip-rule="evenodd" d="M64.383 32.0878L61.1456 26.8405C60.2756 25.4304 60.7216 23.5956 62.1419 22.7424L76.1787 14.309L69.8099 3.98638L55.7731 12.4197C54.3528 13.273 52.4962 12.8217 51.6262 11.4116L48.3888 6.16434L35.2623 31.8172L64.383 32.0878ZM66.178 34.0939C66.9652 34.1012 67.4504 33.2508 67.0392 32.5842L62.8599 25.8105C62.5699 25.3405 62.7186 24.7289 63.192 24.4445L78.086 15.4961C78.5594 15.2117 78.7081 14.6001 78.4181 14.13L70.9992 2.10532C70.7092 1.63529 70.0903 1.48484 69.6169 1.76927L54.7229 10.7176C54.2495 11.0021 53.6306 10.8516 53.3406 10.3816L49.1614 3.60788C48.7502 2.94135 47.7618 2.97617 47.4069 3.66969L32.7346 32.3436C32.3977 33.0018 32.8806 33.7845 33.6279 33.7915L66.178 34.0939Z" fill="#423D3D"/>
<path d="M11.7547 2.33784C11.3492 1.66241 11.8528 0.813829 12.6443 0.83876L44.3709 1.83801C45.1088 1.86126 45.5748 2.63748 45.241 3.28729L30.8875 31.2259C30.5294 31.923 29.5333 31.9512 29.1278 31.2757L25.0792 24.5322C24.795 24.0587 24.178 23.9008 23.7012 24.1796L9.18872 32.6639C8.71193 32.9426 8.09497 32.7847 7.8107 32.3112L0.593537 20.2898C0.309264 19.8163 0.465325 19.2065 0.942109 18.9278L15.4546 10.4434C15.9314 10.1647 16.0875 9.55487 15.8032 9.08137L11.7547 2.33784Z" fill="#8BC43F"/>
<path fill-rule="evenodd" clip-rule="evenodd" d="M14.4157 2.88496L17.5298 8.07197C18.3826 9.49248 17.9144 11.3219 16.4841 12.1581L2.83485 20.1378L9.02257 30.4445L22.6718 22.4648C24.1021 21.6286 25.953 22.1023 26.8058 23.5228L29.9199 28.7098L42.7292 3.77672L14.4157 2.88496ZM12.6443 0.83876C11.8528 0.813829 11.3492 1.66241 11.7547 2.33784L15.8032 9.08137C16.0875 9.55487 15.9314 10.1647 15.4546 10.4434L0.942109 18.9278C0.465325 19.2065 0.309264 19.8163 0.593537 20.2898L7.8107 32.3112C8.09497 32.7847 8.71193 32.9426 9.18872 32.6639L23.7012 24.1796C24.178 23.9008 24.795 24.0587 25.0792 24.5322L29.1278 31.2757C29.5333 31.9512 30.5294 31.923 30.8875 31.2259L45.241 3.28729C45.5748 2.63748 45.1088 1.86126 44.3709 1.83801L12.6443 0.83876Z" fill="#423D3D"/>
<path d="M252.118 34H245.413L243.343 26.7774C242.923 25.2863 242.503 24.1369 242.083 23.3292C241.663 22.4904 241.093 21.8536 240.373 21.4187C239.653 20.9838 238.693 20.7663 237.493 20.7663H232.948V34H226.603V1.38175H239.338C243.178 1.38175 246.013 2.17391 247.843 3.75822C249.673 5.31147 250.588 7.75007 250.588 11.074C250.588 13.2175 250.033 14.9416 248.923 16.2464C247.843 17.5511 246.343 18.3898 244.423 18.7626C245.953 19.2907 247.108 20.2071 247.888 21.5119C248.668 22.8166 249.388 24.5873 250.048 26.824L252.118 34ZM239.518 15.6406C240.898 15.6406 242.023 15.2678 242.893 14.5222C243.793 13.7456 244.243 12.5962 244.243 11.074C244.243 9.55185 243.793 8.41797 242.893 7.67241C242.023 6.89579 240.898 6.50748 239.518 6.50748H232.948V15.6406H239.518Z" fill="#423D3D"/>
<path d="M210.572 34C206.582 34 203.717 33.1302 201.977 31.3905C200.237 29.6509 199.367 27.1346 199.367 23.8417V11.54C199.367 8.24712 200.237 5.73085 201.977 3.99121C203.717 2.25157 206.582 1.38175 210.572 1.38175H221.102V6.50748H210.572C208.922 6.50748 207.692 6.91132 206.882 7.71901C206.102 8.5267 205.712 9.80037 205.712 11.54V15.128H219.122V20.2537H205.712V23.8417C205.712 25.5503 206.102 26.824 206.882 27.6627C207.692 28.4704 208.922 28.8743 210.572 28.8743H221.192V34H210.572Z" fill="#423D3D"/>
<path d="M181.141 6.50748H171.646V1.38175H196.981V6.50748H187.486V34H181.141V6.50748Z" fill="#423D3D"/>
<path d="M169.852 34H163.147L161.077 26.7774C160.657 25.2863 160.237 24.1369 159.817 23.3292C159.397 22.4904 158.827 21.8536 158.107 21.4187C157.387 20.9838 156.427 20.7663 155.227 20.7663H150.682V34H144.337V1.38175H157.072C160.912 1.38175 163.747 2.17391 165.577 3.75822C167.407 5.31147 168.322 7.75007 168.322 11.074C168.322 13.2175 167.767 14.9416 166.657 16.2464C165.577 17.5511 164.077 18.3898 162.157 18.7626C163.687 19.2907 164.842 20.2071 165.622 21.5119C166.402 22.8166 167.122 24.5873 167.782 26.824L169.852 34ZM157.252 15.6406C158.632 15.6406 159.757 15.2678 160.627 14.5222C161.527 13.7456 161.977 12.5962 161.977 11.074C161.977 9.55185 161.527 8.41797 160.627 7.67241C159.757 6.89579 158.632 6.50748 157.252 6.50748H150.682V15.6406H157.252Z" fill="#423D3D"/>
<path d="M131.133 26.4046H118.803L116.688 34H110.343L118.038 7.99859C118.578 6.13469 119.148 4.69017 119.748 3.66502C120.348 2.63988 121.053 1.90985 121.863 1.47494C122.703 1.04003 123.738 0.822578 124.968 0.822578C126.198 0.822578 127.218 1.04003 128.028 1.47494C128.838 1.90985 129.543 2.63988 130.143 3.66502C130.773 4.69017 131.358 6.13469 131.898 7.99859L139.593 34H133.248L131.133 26.4046ZM129.738 21.5119L125.958 8.09179C125.748 7.2841 125.418 6.88025 124.968 6.88025C124.518 6.88025 124.188 7.2841 123.978 8.09179L120.198 21.5119H129.738Z" fill="#423D3D"/>
<path d="M83.5607 1.38175H97.4207C100.721 1.38175 103.241 2.12731 104.981 3.61843C106.751 5.10955 107.636 7.26857 107.636 10.0955C107.636 11.6487 107.186 13.0467 106.286 14.2893C105.386 15.5319 104.081 16.3861 102.371 16.8521C104.231 17.2249 105.731 18.1258 106.871 19.5548C108.011 20.9527 108.581 22.7855 108.581 25.0533C108.581 27.8181 107.636 30.0081 105.746 31.6235C103.886 33.2078 101.336 34 98.0957 34H83.5607V1.38175ZM97.2857 14.5222C98.4857 14.5222 99.4457 14.165 100.166 13.4505C100.916 12.7049 101.291 11.7264 101.291 10.5149C101.291 9.30332 100.916 8.34031 100.166 7.62582C99.4457 6.88026 98.4857 6.50748 97.2857 6.50748H89.9057V14.5222H97.2857ZM96.7457 28.8743C98.6057 28.8743 99.9857 28.5015 100.886 27.7559C101.786 26.9793 102.236 25.8144 102.236 24.2611C102.236 22.7079 101.786 21.5585 100.886 20.8129C99.9857 20.0363 98.6057 19.648 96.7457 19.648H89.9057V28.8743H96.7457Z" fill="#423D3D"/>
</svg>
