<svg xmlns="http://www.w3.org/2000/svg" fill="#43A047" data-name="Layer 1" viewBox="0 0 100 125" x="0px" y="0px"><path d="m86.4806493,36.7772512h-23.2579004V13.5194549c0-4.7051684-3.8142865-8.5194549-8.5194549-8.5194549h-9.4065879c-4.7051684,0-8.5194549,3.8142865-8.5194549,8.5194549v23.2577963H13.5194549c-4.7051684,0-8.5194549,3.8142865-8.5194549,8.5194549v9.406692c0,4.7050642,3.8142865,8.5193507,8.5194549,8.5193507h23.2577963v23.2579004c0,4.7050642,3.8142865,8.5193507,8.5194549,8.5193507h9.4065879c4.7051684,0,8.5194549-3.8142865,8.5194549-8.5193507v-23.2579004h23.2579004c4.7050642,0,8.5193507-3.8142865,8.5193507-8.5193507v-9.406692c0-4.7051684-3.8142865-8.5194549-8.5193507-8.5194549Z"/></svg>