<svg width="50" height="50" viewBox="0 0 50 50" fill="none" xmlns="http://www.w3.org/2000/svg">
<path d="M45.267 17.654H32.346V4.73303C32.346 2.11905 30.2269 0 27.6129 0H22.3871C19.7731 0 17.654 2.11905 17.654 4.73303V17.654H4.73303C2.11905 17.654 0 19.7731 0 22.3871V27.613C0 30.2269 2.11905 32.346 4.73303 32.346H17.654V45.267C17.654 47.881 19.7731 50 22.3871 50H27.6129C30.2269 50 32.346 47.881 32.346 45.267V32.346H45.267C47.881 32.346 50 30.2269 50 27.613V22.3871C50 19.7731 47.881 17.654 45.267 17.654Z" fill="#423D3D"/>
</svg>
