<svg width="50" height="50" viewBox="0 0 50 50" fill="none" xmlns="http://www.w3.org/2000/svg">
<path d="M2.55352 30.2752C1.98619 30.2782 1.43706 30.0751 1.00814 29.7035C0.579224 29.332 0.299678 28.8173 0.221431 28.2551C-0.629215 21.9226 0.990504 15.5055 4.74428 10.3364C8.5775 5.06457 14.31 1.49136 20.7293 0.372559C27.1485 -0.746241 33.751 0.677118 39.1401 4.34155L40.1951 2.88199C40.2749 2.77083 40.3832 2.68335 40.5087 2.62886C40.6342 2.57437 40.772 2.55489 40.9077 2.5725C41.0433 2.59011 41.1716 2.64415 41.279 2.72888C41.3864 2.8136 41.4689 2.92585 41.5177 3.0537L44.3041 10.2909C44.3453 10.4074 44.3575 10.5323 44.3394 10.6546C44.3214 10.7769 44.2737 10.893 44.2005 10.9926C44.1273 11.0922 44.0308 11.1724 43.9196 11.2262C43.8083 11.2799 43.6855 11.3056 43.562 11.301L35.8237 10.9222C35.6874 10.9155 35.5554 10.8721 35.4417 10.7965C35.328 10.7209 35.2369 10.616 35.1779 10.4928C35.1189 10.3696 35.0944 10.2328 35.1067 10.0968C35.1191 9.96081 35.168 9.83068 35.2483 9.72021L36.2932 8.3162C31.9581 5.39848 26.6614 4.27557 21.5161 5.18347C16.3709 6.09136 11.7777 8.95936 8.70177 13.1848C8.13709 13.9767 7.63096 14.8089 7.18742 15.6746H13.4972C13.578 15.6738 13.6575 15.6943 13.7279 15.7341C13.7982 15.7739 13.8568 15.8315 13.8977 15.9011C13.9387 15.9708 13.9605 16.05 13.9611 16.1309C13.9617 16.2117 13.941 16.2912 13.901 16.3615C13.4364 17.1918 13.3202 18.1727 13.578 19.0887C13.7398 19.5325 13.998 19.9349 14.3341 20.2668C14.6702 20.5987 15.0757 20.8518 15.5214 21.0078C16.3235 21.3047 17.1802 21.4251 18.0331 21.3606C18.8859 21.2961 19.7148 21.0483 20.4632 20.6341L25.2081 17.9776C25.2751 17.9397 25.3532 17.9265 25.4288 17.9403C25.5045 17.9542 25.5729 17.9942 25.6221 18.0533L35.541 30.1742L36.7677 31.654C36.9579 31.874 37.0984 32.1324 37.1796 32.4117C37.2608 32.691 37.2807 32.9845 37.2381 33.2723C37.1954 33.56 37.0911 33.8351 36.9324 34.0788C36.7737 34.3225 36.5643 34.529 36.3184 34.6842C35.928 34.9158 35.4719 35.0112 35.0215 34.9554C34.5711 34.8997 34.152 34.6959 33.8298 34.3762L33.6632 34.2145C33.6562 34.2098 33.648 34.2072 33.6396 34.2069C33.6311 34.2066 33.6227 34.2086 33.6154 34.2128C33.608 34.217 33.602 34.2232 33.598 34.2306C33.594 34.2381 33.5921 34.2465 33.5926 34.2549C33.6667 34.6458 33.6239 35.0498 33.4694 35.4164C33.315 35.7829 33.0558 36.0957 32.7244 36.3155C32.3275 36.5632 31.8584 36.6692 31.3936 36.616C30.9289 36.5628 30.4958 36.3536 30.1651 36.0226L30.0137 35.8761C30.0066 35.8714 29.9984 35.8687 29.99 35.8684C29.9815 35.8681 29.9732 35.8702 29.9658 35.8744C29.9585 35.8786 29.9524 35.8848 29.9484 35.8922C29.9444 35.8996 29.9425 35.9081 29.943 35.9165C30.0171 36.3074 29.9743 36.7114 29.8198 37.078C29.6654 37.4445 29.4062 37.7573 29.0748 37.9771C28.6795 38.2248 28.2121 38.3317 27.7485 38.2803C27.2849 38.229 26.8522 38.0225 26.5206 37.6943L26.3691 37.5478C26.3621 37.5431 26.3539 37.5404 26.3455 37.5401C26.337 37.5398 26.3286 37.5419 26.3213 37.5461C26.3139 37.5503 26.3079 37.5564 26.3039 37.5639C26.2999 37.5713 26.298 37.5797 26.2985 37.5882C26.3682 37.9802 26.3206 38.384 26.1617 38.749C26.0028 39.114 25.7396 39.4239 25.4052 39.6397C25.0708 39.8556 24.6802 39.9677 24.2823 39.9621C23.8844 39.9566 23.497 39.8335 23.1688 39.6083L23.3606 39.27C23.7693 38.5834 23.9413 37.7816 23.8501 36.9877C23.7589 36.1939 23.4096 35.452 22.8559 34.8761C22.3292 34.3569 21.653 34.0159 20.9225 33.9014C20.4706 33.1271 19.7388 32.5558 18.8782 32.3055C18.7122 31.725 18.3991 31.1973 17.9693 30.7734C17.5394 30.3496 17.0075 30.044 16.4249 29.8864C16.2066 29.0903 15.7129 28.3977 15.0317 27.9319C14.2736 27.4622 13.3715 27.2823 12.4913 27.4252C11.6111 27.5681 10.8122 28.0242 10.2414 28.7096L8.95921 30.2803H2.55352V30.2752ZM13.9364 29.3561C13.5711 29.1525 13.1453 29.0859 12.7354 29.1683C12.3256 29.2507 11.9585 29.4767 11.7002 29.8056L10.3676 31.4419C10.2251 31.6159 10.1189 31.8166 10.0552 32.0323C9.99141 32.248 9.97141 32.4742 9.99634 32.6977C10.0213 32.9212 10.0906 33.1375 10.2003 33.3338C10.31 33.5301 10.4578 33.7025 10.6351 33.8408L10.837 34.0024C11.1024 34.2108 11.4242 34.3347 11.7608 34.3581C12.0974 34.3815 12.4332 34.3033 12.7249 34.1337C12.7384 34.1255 12.754 34.1214 12.7698 34.1219C12.7856 34.1224 12.8009 34.1276 12.8137 34.1367C12.8266 34.1458 12.8366 34.1586 12.8423 34.1733C12.8481 34.188 12.8493 34.2041 12.846 34.2196C12.7861 34.5257 12.8119 34.8424 12.9206 35.1347C13.0292 35.427 13.2166 35.6836 13.4619 35.8761L13.6284 36.0074C13.8835 36.2082 14.1907 36.3316 14.5137 36.3629C14.8367 36.3943 15.1619 36.3322 15.4507 36.1842C15.4646 36.1766 15.4802 36.1731 15.496 36.1739C15.5117 36.1746 15.5269 36.1797 15.54 36.1886C15.553 36.1975 15.5634 36.2098 15.5699 36.2241C15.5764 36.2385 15.5788 36.2544 15.5769 36.27C15.547 36.5562 15.5902 36.8453 15.7023 37.1103C15.8144 37.3752 15.9918 37.6074 16.218 37.7852L16.3341 37.8761C16.5924 38.0784 16.9034 38.2021 17.2301 38.2326C17.5568 38.263 17.8853 38.1989 18.1765 38.0478C18.1903 38.0391 18.206 38.0341 18.2222 38.0332C18.2385 38.0323 18.2547 38.0355 18.2693 38.0426C18.2839 38.0497 18.2965 38.0603 18.3059 38.0736C18.3153 38.0869 18.3211 38.1023 18.3229 38.1185C18.3888 38.5431 18.6123 38.9272 18.9488 39.1942L19.0195 39.2498C19.2148 39.4027 19.4407 39.5118 19.6819 39.5696C19.9231 39.6273 20.1739 39.6324 20.4172 39.5845C20.6605 39.5366 20.8907 39.4368 21.092 39.2919C21.2933 39.1469 21.4611 38.9603 21.5838 38.7447L21.8312 38.3053C22.0406 37.9578 22.1252 37.5491 22.0711 37.1469C22.0169 36.7447 21.8272 36.373 21.5333 36.0933C21.2849 35.8669 20.9754 35.7184 20.6434 35.6663C20.3114 35.6143 19.9714 35.6609 19.6656 35.8004C19.6576 35.8039 19.6488 35.8053 19.6401 35.8044C19.6314 35.8035 19.6231 35.8003 19.6159 35.7953C19.6088 35.7902 19.6031 35.7833 19.5994 35.7753C19.5958 35.7674 19.5942 35.7586 19.595 35.7499C19.6115 35.4652 19.5562 35.181 19.434 34.9234C19.3118 34.6659 19.1267 34.4433 18.8958 34.2762C18.6649 34.1091 18.3956 34.0029 18.1129 33.9674C17.8301 33.9319 17.543 33.9683 17.278 34.0731C17.0256 34.1186 17.0812 33.8964 17.0812 33.8964C17.2147 33.5714 17.2441 33.213 17.1654 32.8706C17.0867 32.5283 16.9036 32.2188 16.6416 31.9849C16.3796 31.751 16.0515 31.6042 15.7025 31.5649C15.3536 31.5255 15.001 31.5955 14.6935 31.7651C14.5017 31.7904 14.527 31.6186 14.527 31.6186C14.7398 31.2382 14.7972 30.7902 14.6871 30.3684C14.577 29.9465 14.308 29.5838 13.9364 29.3561ZM48.9481 17.8059L48.7865 17.3008C48.6289 16.8325 48.3283 16.4255 47.9271 16.1373C47.5258 15.8492 47.0442 15.6944 46.5503 15.6948H40.9977C40.2696 15.6943 39.5477 15.5608 38.8676 15.3009L28.4236 11.2959C27.388 10.9008 26.2688 10.7764 25.1717 10.9346C24.0747 11.0928 23.0361 11.5283 22.1542 12.1999L15.592 17.1847C15.439 17.324 15.323 17.4992 15.2546 17.6945C15.1861 17.8899 15.1673 18.0992 15.1998 18.3036C15.2324 18.508 15.3153 18.7011 15.441 18.8655C15.5668 19.0299 15.7314 19.1604 15.9202 19.2452C16.5014 19.4983 17.1332 19.6135 17.7662 19.582C18.3993 19.5504 19.0165 19.373 19.5697 19.0634L25.1526 15.9372C25.3573 15.8255 25.5943 15.7881 25.8234 15.8313C26.0526 15.8746 26.2596 15.9959 26.4095 16.1746L38.5798 30.9722C38.6053 31.0038 38.6367 31.03 38.6724 31.0494C38.708 31.0688 38.7471 31.081 38.7874 31.0852C38.8278 31.0894 38.8686 31.0856 38.9074 31.074C38.9463 31.0624 38.9825 31.0433 39.0139 31.0177L39.5187 30.5985C39.7728 30.3923 40.0901 30.2799 40.4172 30.2803H44.3697C43.5036 33.4563 41.8719 36.3712 39.6176 38.7694C37.3634 41.1675 34.5554 42.9756 31.44 44.035C28.3246 45.0944 24.9969 45.3729 21.7489 44.8459C18.5009 44.3189 15.4318 43.0025 12.8107 41.0124L13.9263 39.6285C14.0125 39.5229 14.0686 39.3959 14.0887 39.261C14.1088 39.1261 14.0921 38.9883 14.0404 38.8621C13.9887 38.7359 13.9039 38.626 13.795 38.544C13.6861 38.462 13.557 38.411 13.4215 38.3963L5.71346 37.6084C5.58547 37.5939 5.45589 37.6122 5.33698 37.6618C5.21807 37.7113 5.11376 37.7904 5.03391 37.8915C4.95406 37.9926 4.90132 38.1125 4.88067 38.2397C4.86002 38.3669 4.87215 38.4973 4.9159 38.6185L7.29343 45.9971C7.34088 46.1233 7.42113 46.2345 7.52588 46.3193C7.63064 46.404 7.75611 46.4593 7.88935 46.4794C8.02259 46.4995 8.15877 46.4836 8.28384 46.4334C8.40891 46.3833 8.51833 46.3006 8.60082 46.194L9.73153 44.7951C13.9221 48.0279 19.0297 49.847 24.3193 49.9908C29.6089 50.1345 34.8077 48.5954 39.1675 45.595C43.5272 42.5946 46.823 38.2876 48.5806 33.2939C50.3382 28.3002 50.4668 22.8774 48.9481 17.8059Z" fill="#423D3D"/>
</svg>
