<svg xmlns="http://www.w3.org/2000/svg" fill="#43A047" data-name="Layer 1" viewBox="0 0 100 125" x="0px" y="0px"><title>tomi.dev</title><path d="M5.52,60.48a4.64,4.64,0,0,1-4.62-4A49.21,49.21,0,0,1,9.86,21,49.71,49.71,0,0,1,78,9.13l2.09-2.89a1.5,1.5,0,0,1,2.62.34l5.52,14.33a1.5,1.5,0,0,1-1.47,2l-15.33-.75a1.5,1.5,0,0,1-1.14-2.38L72.36,17A40,40,0,0,0,17.7,26.64a39.57,39.57,0,0,0-3,4.93h12.5A.91.91,0,0,1,28,32.93a7.11,7.11,0,0,0-.64,5.4,6.32,6.32,0,0,0,3.85,3.8A11.78,11.78,0,0,0,41,41.39l9.4-5.26a.65.65,0,0,1,.82.15l19.65,24,2.43,2.93a4,4,0,0,1-.89,6,4.06,4.06,0,0,1-4.93-.61l-.33-.32a.09.09,0,0,0-.14.08,4,4,0,0,1-1.72,4.08,4.1,4.1,0,0,1-5.07-.58l-.3-.29a.09.09,0,0,0-.14.08,4,4,0,0,1-1.72,4.08A4.1,4.1,0,0,1,53,75.17l-.3-.29a.09.09,0,0,0-.14.08,4,4,0,0,1-6.2,4l.38-.67a7.22,7.22,0,0,0-1-8.7,7,7,0,0,0-3.83-1.93,6.93,6.93,0,0,0-4.05-3.16A6.94,6.94,0,0,0,33,59.71a6.9,6.9,0,0,0-2.76-3.87,7.33,7.33,0,0,0-9.49,1.54l-2.54,3.11H5.52Zm22.55-1.82a3.48,3.48,0,0,0-4.43.89L21,62.79a3.34,3.34,0,0,0,.53,4.75l.4.32a3.34,3.34,0,0,0,3.74.26.16.16,0,0,1,.24.17,3.35,3.35,0,0,0,1.22,3.28l.33.26a3.36,3.36,0,0,0,3.61.35.17.17,0,0,1,.25.17,3.37,3.37,0,0,0,1.27,3l.23.18a3.39,3.39,0,0,0,3.65.34.19.19,0,0,1,.29.14A3.38,3.38,0,0,0,38,78.14l.14.11a3.42,3.42,0,0,0,5.08-1l.49-.87A3.53,3.53,0,0,0,43.12,72a3.4,3.4,0,0,0-3.7-.58.1.1,0,0,1-.14-.1A3.36,3.36,0,0,0,34.69,68c-.5.09-.39-.35-.39-.35a3.36,3.36,0,0,0-4.73-4.22c-.38.05-.33-.29-.33-.29A3.34,3.34,0,0,0,28.07,58.66ZM97.43,35.79l-.32-1v0a4.67,4.67,0,0,0-4.43-3.18h-11a11.85,11.85,0,0,1-4.22-.78L56.77,22.9a12.91,12.91,0,0,0-12.42,1.79l-13,9.87A2.47,2.47,0,0,0,32,38.64a8.15,8.15,0,0,0,7.23-.36l11.06-6.19a2,2,0,0,1,2.49.47l24.11,29.3a.61.61,0,0,0,.86.09l1-.83a2.82,2.82,0,0,1,1.78-.63h7.83A39.84,39.84,0,0,1,25.84,81.74L28.05,79a1.5,1.5,0,0,0-1-2.44L11.78,75a1.5,1.5,0,0,0-1.58,2l4.71,14.61A1.5,1.5,0,0,0,17.5,92l2.24-2.77A49.53,49.53,0,0,0,97.43,35.79Z"/></svg>