<svg xmlns="http://www.w3.org/2000/svg" xmlns:xlink="http://www.w3.org/1999/xlink" version="1.1" x="0px" y="0px" viewBox="0 0 64 80" fill="#43A047" style="enable-background:new 0 0 64 64;" xml:space="preserve"><g><path d="M57.02,40.81l-9.36-12.55c-0.72-0.97-2.11-1.18-3.09-0.47l-2.59,1.86c-0.48,0.35-0.8,0.86-0.89,1.45   c-0.05,0.34-0.02,0.68,0.09,0.99c-0.99,0.29-2.58,0.63-4.42,0.53C35.11,32.52,33.51,32.65,32,33c-1.52-0.35-3.12-0.49-4.75-0.39   c-1.83,0.1-3.42-0.24-4.42-0.53c0.1-0.32,0.14-0.65,0.08-0.99c-0.09-0.59-0.41-1.1-0.89-1.45l-2.59-1.86   c-0.98-0.71-2.37-0.5-3.09,0.47L6.98,40.81c-0.35,0.47-0.5,1.06-0.41,1.64c0.09,0.59,0.41,1.1,0.89,1.45l2.59,1.86   c0.39,0.28,0.85,0.42,1.3,0.42c0.68,0,1.36-0.31,1.79-0.89l0.1-0.14c0.79,1.45,1.86,2.98,3.2,4.59c-0.31,0.41-0.49,0.84-0.53,1.28   c-0.09,1.22,0.39,2.46,1.3,3.31c0.72,0.67,1.64,1.04,2.59,1.04c0.08,0,0.17-0.01,0.25-0.02c0.18,0.83,0.59,1.62,1.23,2.21   c0.74,0.7,1.69,1.07,2.67,1.07c0.01,0,0.02,0,0.04,0c0.2,0.76,0.6,1.47,1.19,2.01c0.72,0.66,1.61,1.01,2.55,1.01   c0.17,0,0.34-0.01,0.52-0.04c0.66-0.09,1.38-0.45,2.12-1.02c2.5,0.94,4.49,1.41,6.04,1.41c0.89,0,1.64-0.15,2.26-0.46   c1.26-0.62,1.77-1.73,2.06-2.68c0.38,0.04,0.74,0.07,1.08,0.07c0.87,0,1.61-0.15,2.22-0.44c1.35-0.64,1.86-1.84,2.14-2.82   c0.11-0.39,0.14-0.79,0.11-1.19c0.06,0,0.12,0.01,0.18,0.01c0.88,0,1.61-0.15,2.22-0.44c1.35-0.65,1.85-1.85,2.14-2.82   c0.53-1.82-0.67-3.41-1.4-4.16c0.17-0.53,0.54-1.39,1.2-2.08l0.22,0.3c0.43,0.58,1.11,0.89,1.79,0.89c0.45,0,0.91-0.14,1.3-0.42   l2.59-1.86c0.48-0.35,0.8-0.86,0.89-1.45C57.51,41.87,57.37,41.28,57.02,40.81z M11.55,44.09c-0.07,0.1-0.22,0.12-0.32,0.05   l-2.59-1.86c-0.06-0.04-0.08-0.09-0.08-0.13c-0.01-0.03,0-0.09,0.04-0.14l9.36-12.56c0.07-0.1,0.22-0.12,0.32-0.04l2.59,1.86   c0.06,0.04,0.08,0.09,0.08,0.13c0.01,0.03,0,0.09-0.04,0.14L11.55,44.09z M20.22,53.29c-0.06,0.02-0.12,0.05-0.17,0.06   c-0.71,0.1-1.22-0.26-1.46-0.48c-0.46-0.44-0.72-1.09-0.68-1.7c0.01-0.17,0.49-0.84,2.42-1.69c0.65-0.29,1.42-0.1,1.88,0.45   c0.31,0.39,0.4,0.9,0.27,1.37C21.34,51.93,20.58,52.59,20.22,53.29z M24.51,56.54c-0.01,0-0.02,0.01-0.03,0.01   c-0.11,0.04-0.2,0.06-0.27,0.07c-0.76,0.11-1.3-0.28-1.55-0.51c-0.49-0.46-0.76-1.15-0.71-1.79c0.01-0.19,0.5-0.88,2.53-1.78   c0.22-0.1,0.45-0.14,0.68-0.14c0.5,0,0.99,0.22,1.32,0.63c0.52,0.64,0.47,1.57-0.11,2.16C25.5,56.04,24.9,56.4,24.51,56.54z    M30.03,58.25c-0.79,0.81-1.54,1.31-2.04,1.38c-0.53,0.07-1.03-0.1-1.44-0.47c-0.32-0.29-0.54-0.68-0.63-1.09   c0.6-0.34,1.23-0.83,1.89-1.49c0.26-0.26,0.46-0.56,0.62-0.86c0.61-0.2,1.3-0.02,1.73,0.5C30.63,56.82,30.58,57.69,30.03,58.25z    M48.91,50.67c-0.26,0.89-0.56,1.33-1.08,1.58c-0.92,0.44-3.1,0.51-8.28-1.66c-0.51-0.21-1.1,0.03-1.31,0.54   c-0.21,0.51,0.03,1.1,0.54,1.31c2.13,0.89,3.93,1.48,5.44,1.79c0.11,0.32,0.13,0.61,0.05,0.88c-0.27,0.9-0.56,1.33-1.08,1.58   c-0.92,0.44-3.1,0.51-8.29-1.66c-0.51-0.21-1.09,0.03-1.31,0.54c-0.21,0.51,0.03,1.09,0.54,1.31c1.76,0.74,3.29,1.26,4.63,1.6   c-0.24,0.67-0.52,1.04-0.95,1.26c-0.74,0.36-2.36,0.49-5.87-0.72c0.79-1.25,0.72-2.89-0.25-4.08c-0.72-0.87-1.79-1.33-2.87-1.31   c-0.07-0.67-0.33-1.32-0.78-1.88c-0.86-1.06-2.22-1.53-3.51-1.3c-0.08-0.64-0.34-1.27-0.76-1.79c-1.03-1.25-2.77-1.66-4.23-1.01   c-0.59,0.26-1.1,0.52-1.55,0.79c-1.5-1.81-2.66-3.54-3.39-5.08l7.11-9.53c1.07,0.36,3.17,0.92,5.67,0.78   c0.18-0.01,0.36-0.01,0.53-0.01c0,0,0,0-0.01,0c-1.83,1.05-3.71,1.78-5.48,2.42c-0.58,0.21-1.05,0.66-1.29,1.22   c-0.23,0.55-0.22,1.18,0.03,1.72c1.2,2.6,3.59,3.45,6.37,2.28c6.05-2.54,9.18-0.03,12.51,2.64c2.19,1.75,4.44,3.56,7.43,3.56   c0.15,0,0.31-0.02,0.47-0.03C48.37,48.84,49.17,49.79,48.91,50.67z M47.53,46.44c-0.02,0-0.04,0-0.05,0c-2.3,0-4.12-1.46-6.19-3.12   C38,40.68,33.9,37.4,26.75,40.4c-1.82,0.77-3.03,0.36-3.78-1.27c-0.01-0.01-0.02-0.05,0-0.11c0.01-0.03,0.05-0.09,0.13-0.12   c1.85-0.67,3.83-1.44,5.8-2.57c2.25-1.29,4.92-1.88,7.74-1.73c2.51,0.14,4.6-0.42,5.67-0.78l7.12,9.55   C48.36,44.36,47.79,45.63,47.53,46.44z M55.37,42.27l-2.59,1.86c-0.1,0.07-0.25,0.05-0.32-0.04l-9.36-12.56   c-0.04-0.05-0.04-0.1-0.04-0.14c0.01-0.04,0.02-0.09,0.08-0.13l2.59-1.86c0.04-0.03,0.09-0.04,0.14-0.04   c0.07,0,0.14,0.03,0.18,0.09l9.36,12.56c0.04,0.05,0.04,0.1,0.04,0.14C55.44,42.18,55.42,42.23,55.37,42.27z"/><path d="M19.72,11.37c0.5,0.24,1.1,0.03,1.34-0.47C23.04,6.71,27.34,4,32,4c5.95,0,10.9,4.29,11.89,9.92l-0.27-0.19   c-0.45-0.33-1.07-0.22-1.4,0.23c-0.32,0.45-0.22,1.07,0.23,1.4l2.05,1.48c0.17,0.13,0.38,0.19,0.58,0.19   c0.21,0,0.41-0.06,0.58-0.19l2.05-1.48c0.45-0.32,0.55-0.95,0.23-1.4c-0.32-0.45-0.95-0.55-1.4-0.23l-0.6,0.43   C45.04,7.31,39.14,2,32,2c-5.43,0-10.43,3.16-12.75,8.04C19.01,10.54,19.22,11.13,19.72,11.37z"/><path d="M17.44,18.3l0.59-0.43c0.92,6.86,6.83,12.16,13.96,12.16c5.43,0,10.43-3.16,12.75-8.04c0.24-0.5,0.03-1.1-0.47-1.33   c-0.5-0.24-1.1-0.03-1.34,0.47c-1.98,4.19-6.28,6.9-10.94,6.9c-5.94,0-10.89-4.29-11.89-9.91l0.26,0.19   c0.18,0.13,0.38,0.19,0.58,0.19c0.31,0,0.62-0.14,0.81-0.42c0.32-0.45,0.22-1.07-0.23-1.4l-2.05-1.48c-0.35-0.25-0.82-0.25-1.17,0   l-2.05,1.48c-0.45,0.32-0.55,0.95-0.23,1.4C16.37,18.52,16.99,18.63,17.44,18.3z"/><path d="M32.5,7.02c-0.31-0.18-0.69-0.18-1,0l-7.04,4.07c-0.31,0.18-0.5,0.51-0.5,0.87v8.13c0,0.36,0.19,0.69,0.5,0.87l7.04,4.07   c0.16,0.09,0.33,0.13,0.5,0.13c0.17,0,0.34-0.04,0.5-0.13l7.04-4.07c0.31-0.18,0.5-0.51,0.5-0.87v-8.13c0-0.36-0.19-0.69-0.5-0.87   L32.5,7.02z M31,22.41l-5.04-2.91v-5.83L31,16.59V22.41z M32,14.86l-5.04-2.91L32,9.04l5.04,2.91L32,14.86z M38.04,19.5L33,22.41   v-5.82l5.04-2.91V19.5z"/></g><text x="0" y="84" fill="#000000" font-size="5px" font-weight="bold" font-family="'Helvetica Neue', Helvetica, Arial-Unicode, Arial, Sans-serif">from the Noun Project</text></svg>