<svg width="56" height="56" viewBox="0 0 56 56" fill="none" xmlns="http://www.w3.org/2000/svg">
<path d="M3 3H7.45063C10.2131 3 12.3872 5.325 12.157 8L10.034 32.9C9.67591 36.975 12.9755 40.475 17.1703 40.475H44.4111C48.0943 40.475 51.3172 37.525 51.5985 33.95L52.9798 15.2C53.2867 11.05 50.0639 7.675 45.7923 7.675H12.7709M20.9047 18H51.5985M39.4489 53C41.2148 53 42.6462 51.601 42.6462 49.875C42.6462 48.149 41.2148 46.75 39.4489 46.75C37.683 46.75 36.2516 48.149 36.2516 49.875C36.2516 51.601 37.683 53 39.4489 53ZM18.9864 53C20.7522 53 22.1836 51.601 22.1836 49.875C22.1836 48.149 20.7522 46.75 18.9864 46.75C17.2205 46.75 15.7891 48.149 15.7891 49.875C15.7891 51.601 17.2205 53 18.9864 53Z" stroke="#423D3D" stroke-width="6" stroke-miterlimit="10" stroke-linecap="round" stroke-linejoin="round"/>
</svg>
