<svg xmlns="http://www.w3.org/2000/svg" data-name="Layer 1" fill="orange" viewBox="0 0 95 118.75" x="0px" y="0px"><defs><style>.cls-1{fill-rule:evenodd;}</style></defs><title>a</title><path class="cls-1" d="M20.892,92.5H74.108a8.629,8.629,0,0,0,8.625-8.625V21.418h5.846a2.111,2.111,0,0,0,0-4.221H70.824V9.12A6.627,6.627,0,0,0,64.2,2.5H30.8A6.633,6.633,0,0,0,24.176,9.12V17.2H6.429a2.111,2.111,0,1,0,0,4.221h5.846V83.873A8.628,8.628,0,0,0,20.892,92.5ZM28.4,9.12a2.407,2.407,0,0,1,2.405-2.4H64.2A2.407,2.407,0,0,1,66.6,9.12V17.2H28.4V9.12ZM49.61,36.985V74.013a2.11,2.11,0,0,1-4.22,0V36.985a2.11,2.11,0,0,1,4.22,0Zm14.1,7.969V66.043a2.111,2.111,0,1,1-4.221,0V44.954a2.111,2.111,0,0,1,4.221,0Zm-28.188,0V66.043a2.111,2.111,0,1,1-4.221,0V44.954a2.111,2.111,0,0,1,4.221,0Z"/></svg>