<svg xmlns="http://www.w3.org/2000/svg" data-name="Layer 1" viewBox="0 0 64 80" fill="blue" x="0px" y="0px"><path d="M58.3109,46.0462l-20.98,11.39a8.819,8.819,0,0,1-7.44.47l-8.31-3.26a7.5722,7.5722,0,0,0-2.74-.52h-3.49v-13.2h4.97a3.4813,3.4813,0,0,1,1.49.33l7.54,3.5a6.8435,6.8435,0,0,0,2.85.63h8.1a1.63,1.63,0,1,1,0,3.26H30.231a4.811,4.811,0,0,0-3.42,1.41l-.82.82,1.41,1.42.83-.82a2.7729,2.7729,0,0,1,2-.83h10.07a3.63,3.63,0,0,0,3.47-2.63l13.02-5.2a1.8,1.8,0,0,1,2.33,1.02A1.797,1.797,0,0,1,58.3109,46.0462Z"/><path d="M4.7609,38.2563v18.05h8.59v-18.01C11.5809,38.2862,7.791,38.2563,4.7609,38.2563Zm2.94,16.42h-2v-2.06h2Zm3.08,0h-2v-2.06h2Z"/><path d="M15.7009,17.2962l.48,2.8-2.51-1.32a.9809.9809,0,0,0-.94,0l-2.52,1.32.48-2.8a1.0384,1.0384,0,0,0-.29-.89l-2.04-1.99,2.82-.41a1.01,1.01,0,0,0,.76-.55l1.26-2.55,1.25,2.55a1.01,1.01,0,0,0,.76.55l2.82.41-2.04,1.99A1.0385,1.0385,0,0,0,15.7009,17.2962Z"/><path d="M35.271,13.7363l.66,3.86-3.46-1.82a.9811.9811,0,0,0-.94,0l-3.46,1.82.66-3.86a1.0384,1.0384,0,0,0-.29-.89l-2.81-2.73,3.88-.57a1.01,1.01,0,0,0,.76-.55l1.73-3.51,1.73,3.51a1.01,1.01,0,0,0,.76.55l3.88.57-2.81,2.73A1.0385,1.0385,0,0,0,35.271,13.7363Z"/><path d="M53.3109,17.2962l.48,2.8-2.52-1.32a.9956.9956,0,0,0-.47-.12.9286.9286,0,0,0-.46.12l-2.52,1.32.48-2.8a1.0093,1.0093,0,0,0-.29-.89l-2.04-1.99,2.82-.41a.9775.9775,0,0,0,.75-.55l1.26-2.55,1.26,2.55a1.01,1.01,0,0,0,.76.55l2.82.41-2.04,1.99A.9825.9825,0,0,0,53.3109,17.2962Z"/><rect x="6.2534" y="25.9317" width="22.3623" height="2"/><rect x="6.2534" y="31.2071" width="39.9082" height="2"/></svg>