<svg width="50" height="50" viewBox="0 0 50 50" fill="none" xmlns="http://www.w3.org/2000/svg">
<path d="M1.94834 0.000315771C1.25556 -0.0156215 0.611191 0.576497 0.261939 1.54989C-0.0873127 2.52332 -0.0873127 3.72724 0.261939 4.70063C0.611191 5.67406 1.25556 6.26615 1.94834 6.25021H48.0517C48.7444 6.26615 49.3888 5.67403 49.7381 4.70063C50.0873 3.72721 50.0873 2.52329 49.7381 1.54989C49.3888 0.576466 48.7444 -0.0156215 48.0517 0.000315771H1.94834ZM1.94834 21.8751C1.25556 21.8591 0.611191 22.4512 0.261939 23.4246C-0.0873127 24.3981 -0.0873127 25.602 0.261939 26.5754C0.611191 27.5488 1.25556 28.1409 1.94834 28.125H48.0517C48.7444 28.1409 49.3888 27.5488 49.7381 26.5754C50.0873 25.6019 50.0873 24.398 49.7381 23.4246C49.3888 22.4512 48.7444 21.8591 48.0517 21.8751H1.94834ZM1.94834 43.7498C1.25556 43.7339 0.611191 44.326 0.261939 45.2994C-0.0873127 46.2728 -0.0873127 47.4767 0.261939 48.4501C0.611191 49.4235 1.25556 50.0156 1.94834 49.9997H48.0517C48.7444 50.0156 49.3888 49.4235 49.7381 48.4501C50.0873 47.4767 50.0873 46.2728 49.7381 45.2994C49.3888 44.3259 48.7444 43.7339 48.0517 43.7498H1.94834Z" fill="#423D3D"/>
</svg>
