<svg width="50" height="50" viewBox="0 0 50 50" fill="none" xmlns="http://www.w3.org/2000/svg">
<path d="M6.1695 0.00546088C2.76351 0.0936878 0.00260899 3.6337 0.000133699 7.99661L2.9e-10 41.9523C-3.28576e-05 46.3729 2.79261 49.9607 6.24875 50L43.7605 49.998C47.2166 49.9588 49.9963 46.3728 49.9963 41.9522C49.9963 41.9454 50 7.96734 50 7.96734C49.9979 3.54779 47.2181 0.0392135 43.7632 0L6.1695 0.00546088ZM43.6247 5.99869C44.0155 5.99734 44.4025 6.21886 44.6602 6.64384C45.1021 7.37295 44.9975 8.42117 44.4264 8.98545L27.1704 26.0289C26.5687 26.6202 25.8149 26.972 24.9967 26.972C24.1663 26.972 23.4023 26.6097 22.7962 26.0037L5.5698 8.98562C4.99874 8.4214 4.89412 7.37315 5.33606 6.64402C5.59371 6.21903 5.98025 5.99639 6.37099 5.99639C6.65058 5.99639 6.93236 6.11029 7.17058 6.34571L24.4114 23.3762C24.5727 23.5372 24.7759 23.6333 24.9967 23.6333C25.2171 23.6333 25.42 23.5376 25.5813 23.3782L42.8256 6.34554C43.0611 6.11292 43.339 5.99886 43.6154 5.99886L43.6247 5.99869ZM18.3935 25.2977C18.7281 25.2963 19.0635 25.4593 19.3188 25.7852C19.8296 26.4369 19.8296 27.4938 19.3188 28.1456L7.40472 43.3528C7.14937 43.6787 6.81471 43.8417 6.48005 43.8417C6.14541 43.8417 5.81075 43.6787 5.55539 43.3528C5.04466 42.7009 5.0447 41.6442 5.55539 40.9923L17.4695 25.7852C17.7238 25.4606 18.0567 25.2977 18.39 25.2977H18.3935ZM31.604 25.298C31.9387 25.2966 32.2714 25.4593 32.5267 25.7853L44.4408 40.9924C44.9515 41.6442 44.9515 42.7009 44.4408 43.3528C44.1855 43.6787 43.8508 43.8417 43.5162 43.8417C43.1815 43.8417 42.8468 43.6787 42.5915 43.3528L30.6774 28.1457C30.1667 27.4939 30.1667 26.4371 30.6774 25.7853C30.9317 25.4607 31.2646 25.2978 31.5979 25.2978L31.604 25.298Z" fill="#423D3D"/>
</svg>
