<svg xmlns="http://www.w3.org/2000/svg" xmlns:xlink="http://www.w3.org/1999/xlink" version="1.1" viewBox="328 722 64 80" x="0px" y="0px"><g><g style="" fill="#757575" fill-opacity="1.0" stroke-linejoin=" miter"><path d="M342.80637,736.11786L342.80637,736.11884C339.69662,736.18195,337.17584,738.7132,337.17358,741.83405L337.17346,766.12305C337.17343,769.28516,339.72318,771.8516,342.87872,771.8797L377.1278,771.8783C380.28336,771.8502,382.8213,769.2851,382.8213,766.123C382.8213,766.11816,382.82465,741.8131,382.82465,741.8131C382.82272,738.65173,380.28467,736.142,377.1303,736.11395 Z M377.00388,740.4049C376.99835,740.405,377.00388,740.4049,377.00388,740.4049C377.36063,740.40393,377.71402,740.5624,377.94925,740.8664C378.35275,741.38794,378.25723,742.13776,377.73584,742.5414L361.9807,754.7328C361.4313,755.1558,360.74304,755.4074,359.99603,755.4074C359.23788,755.4074,358.54028,755.1483,357.9869,754.7148L342.25882,742.5415C341.73743,742.1379,341.6419,741.38806,342.0454,740.8665C342.28064,740.5625,342.63358,740.40326,342.99033,740.40326C343.2456,740.40326,343.50287,740.48474,343.72037,740.65314L359.4616,752.83527C359.60892,752.9505,359.79443,753.0192,359.99603,753.0192C360.1973,753.0192,360.38254,752.95074,360.52975,752.83673L376.2743,740.653C376.48926,740.4866,376.74304,740.405,376.99536,740.405 Z M353.96713,754.2098C353.96576,754.2098,353.96713,754.2098,353.96713,754.2098C354.27267,754.2088,354.57886,754.3254,354.812,754.5585C355.27832,755.0247,355.2783,755.7807,354.812,756.24695L343.93414,767.1249C343.701,767.358,343.39545,767.47455,343.0899,767.47455C342.78436,767.47455,342.47882,767.358,342.24567,767.1249C341.77936,766.6586,341.7794,765.90265,342.24567,765.43634L353.12354,754.5585C353.3557,754.32635,353.6597,754.2098,353.96396,754.2098 Z M366.0287,754.20996C366.02582,754.20984,366.0287,754.20996,366.0287,754.20996C366.33423,754.209,366.638,754.3254,366.87112,754.55853L377.749,765.4364C378.21527,765.90265,378.21527,766.6586,377.749,767.1249C377.51587,767.358,377.2103,767.47455,376.90475,767.47455C376.5992,767.47455,376.29364,767.358,376.06052,767.1249L365.18265,756.247C364.71637,755.78076,364.71637,755.0248,365.18265,754.55853C365.4148,754.32635,365.7188,754.20984,366.02307,754.20984 Z"/></g></g></svg>