<svg xmlns="http://www.w3.org/2000/svg" fill="gray" viewBox="0 -2 30 40" x="0px" y="0px"><path d="M19,2H6c-1.654,0-3,1.346-3,3V25c0,1.654,1.346,3,3,3h6.95c-.602-1.207-.95-2.562-.95-4,0-2.852,1.385-5.514,3.609-7.19-.382-.503-.609-1.131-.609-1.81,0-1.654,1.346-3,3-3h4V5c0-1.654-1.346-3-3-3ZM9,24h-3c-.552,0-1-.447-1-1s.448-1,1-1h3c.552,0,1,.447,1,1s-.448,1-1,1Zm1-4H6c-.552,0-1-.447-1-1s.448-1,1-1h4c.552,0,1,.447,1,1s-.448,1-1,1Zm2-4H6c-.552,0-1-.448-1-1s.448-1,1-1h6c.552,0,1,.448,1,1s-.448,1-1,1Zm3-4H6c-.552,0-1-.448-1-1s.448-1,1-1H15c.552,0,1,.448,1,1s-.448,1-1,1Zm0-4H6c-.552,0-1-.448-1-1s.448-1,1-1H15c.552,0,1,.448,1,1s-.448,1-1,1Zm12.708,11.706c.39-.391,.39-1.024,0-1.414-.39-.391-1.023-.391-1.414,0l-.562,.563c-.645-.593-1.398-1.066-2.23-1.385v-1.47h.5c.552,0,1-.448,1-1s-.448-1-1-1h-6c-.552,0-1,.448-1,1s.448,1,1,1h.5v1.47c-2.627,1.01-4.5,3.553-4.5,6.53,0,3.859,3.14,7,7,7s7-3.141,7-7c0-1.312-.369-2.536-1-3.586l.707-.708Zm-3.813,5.741c-.175,.351-.528,.553-.896,.553-.15,0-.303-.034-.446-.105l-2-1c-.339-.17-.553-.516-.553-.895v-2c0-.553,.448-1,1-1s1,.447,1,1v1.382l1.447,.724c.494,.247,.694,.848,.447,1.342Z"/></svg>