<svg xmlns="http://www.w3.org/2000/svg" xmlns:xlink="http://www.w3.org/1999/xlink" version="1.1" x="0px" y="0px" fill="#757575" viewBox="0 0 60 75" style="enable-background:new 0 0 60 60;" xml:space="preserve"><g><path d="M35,10v4c0,0.55-0.45,1-1,1H18c-0.55,0-1-0.45-1-1v-4c0-0.55,0.45-1,1-1h5c0-1.65,1.35-3,3-3s3,1.35,3,3h5   C34.55,9,35,9.45,35,10z"/><path d="M36.29,31.96l0.45,0.36c0,0-0.01,0-0.01-0.01l0.54,0.42l4.21,3.31c-0.01,0-0.02-0.01-0.03-0.02l0.67,0.53   c-0.01-0.02-0.02-0.02-0.03-0.04l0.48,0.38l8.95-11.37l-6.3-4.92L36.29,31.96z"/><path d="M52.48,17.86c-1.74-1.37-4.26-1.07-5.62,0.67l-0.4,0.51l6.3,4.92l0.38-0.49C54.51,21.74,54.21,19.22,52.48,17.86z"/><path d="M33.58,32.64c0.01-0.04,0.03-0.08,0.04-0.12c0.01-0.06,0.03-0.11,0.05-0.17c0.04-0.13,0.09-0.26,0.15-0.38   c0.02-0.04,0.04-0.07,0.06-0.11c0.09-0.16,0.18-0.31,0.29-0.45c0.01,0,0.01,0,0.01,0c0.03-0.05,0.07-0.1,0.11-0.14l11-13.98   c0.21-0.27,0.46-0.52,0.71-0.75V12c0-0.55-0.45-1-1-1h-8v3c0,1.65-1.35,3-3,3H18c-1.65,0-3-1.35-3-3v-3H7c-0.55,0-1,0.45-1,1v41   c0,0.55,0.45,1,1,1h38c0.55,0,1-0.45,1-1V35.78l-2.42,3.08c-0.01,0.01-0.03,0.03-0.05,0.04c-0.11,0.14-0.23,0.26-0.36,0.37   c-0.03,0.03-0.06,0.06-0.09,0.08c-0.17,0.13-0.35,0.25-0.54,0.35h-0.01c0,0,0,0-0.01,0l-6.18,3.02c-0.4,0.2-0.86,0.3-1.31,0.3   c-0.67,0-1.33-0.23-1.86-0.64c-0.9-0.71-1.32-1.89-1.07-3L33.58,32.64z M17,49c0,0.55-0.45,1-1,1h-6c-0.55,0-1-0.45-1-1v-6   c0-0.55,0.45-1,1-1h6c0.55,0,1,0.45,1,1V49z M17,37c0,0.55-0.45,1-1,1h-6c-0.55,0-1-0.45-1-1v-6c0-0.55,0.45-1,1-1h6   c0.55,0,1,0.45,1,1V37z M17,25c0,0.55-0.45,1-1,1h-6c-0.55,0-1-0.45-1-1v-6c0-0.55,0.45-1,1-1h6c0.55,0,1,0.45,1,1V25z M21,21h16   c0.55,0,1,0.45,1,1s-0.45,1-1,1H21c-0.55,0-1-0.45-1-1S20.45,21,21,21z M37,45c0.55,0,1,0.45,1,1s-0.45,1-1,1H21   c-0.55,0-1-0.45-1-1s0.45-1,1-1H37z M31.05,35H21c-0.55,0-1-0.45-1-1s0.45-1,1-1h10.05c0.55,0,1,0.45,1,1S31.6,35,31.05,35z"/><path d="M34.41,40.81c0.18,0.14,0.4,0.21,0.62,0.21c0.15,0,0.3-0.03,0.44-0.1l5.64-2.76l-1.75-1.36l-2.21-1.74l-1.75-1.38   l-1.35,6.13C33.97,40.18,34.11,40.57,34.41,40.81z"/></g></svg>