<svg width="50" height="50" viewBox="0 0 50 50" fill="none" xmlns="http://www.w3.org/2000/svg">
<path d="M31.9974 0H5.99952C2.69178 0 0 2.32069 0 5.17241V39.6552C0 42.5069 2.69178 44.8276 5.99952 44.8276H19.8984C18.6945 42.7466 17.9986 40.4103 17.9986 37.931C17.9986 33.0138 20.7683 28.4241 25.216 25.5345C24.452 24.6672 23.9981 23.5845 23.9981 22.4138C23.9981 19.5621 26.6899 17.2414 29.9976 17.2414H37.997V5.17241C37.997 2.32069 35.3052 0 31.9974 0ZM11.999 37.931H5.99952C4.89561 37.931 3.99968 37.1603 3.99968 36.2069C3.99968 35.2534 4.89561 34.4828 5.99952 34.4828H11.999C13.103 34.4828 13.9989 35.2534 13.9989 36.2069C13.9989 37.1603 13.103 37.931 11.999 37.931ZM13.9989 31.0345H5.99952C4.89561 31.0345 3.99968 30.2638 3.99968 29.3103C3.99968 28.3569 4.89561 27.5862 5.99952 27.5862H13.9989C15.1028 27.5862 15.9987 28.3569 15.9987 29.3103C15.9987 30.2638 15.1028 31.0345 13.9989 31.0345ZM17.9986 24.1379H5.99952C4.89561 24.1379 3.99968 23.3655 3.99968 22.4138C3.99968 21.4621 4.89561 20.6897 5.99952 20.6897H17.9986C19.1025 20.6897 19.9984 21.4621 19.9984 22.4138C19.9984 23.3655 19.1025 24.1379 17.9986 24.1379ZM23.9981 17.2414H5.99952C4.89561 17.2414 3.99968 16.469 3.99968 15.5172C3.99968 14.5655 4.89561 13.7931 5.99952 13.7931H23.9981C25.102 13.7931 25.9979 14.5655 25.9979 15.5172C25.9979 16.469 25.102 17.2414 23.9981 17.2414ZM23.9981 10.3448H5.99952C4.89561 10.3448 3.99968 9.57241 3.99968 8.62069C3.99968 7.66897 4.89561 6.89655 5.99952 6.89655H23.9981C25.102 6.89655 25.9979 7.66897 25.9979 8.62069C25.9979 9.57241 25.102 10.3448 23.9981 10.3448ZM49.412 30.5276C50.192 29.8534 50.192 28.7621 49.412 28.0897C48.6321 27.4155 47.3662 27.4155 46.5843 28.0897L45.4604 29.0603C44.1705 28.0379 42.6646 27.2224 41.0007 26.6724V24.1379H42.0006C43.1046 24.1379 44.0005 23.3655 44.0005 22.4138C44.0005 21.4621 43.1046 20.6897 42.0006 20.6897H30.0016C28.8977 20.6897 28.0018 21.4621 28.0018 22.4138C28.0018 23.3655 28.8977 24.1379 30.0016 24.1379H31.0015V26.6724C25.7479 28.4138 22.0022 32.7983 22.0022 37.931C22.0022 44.5845 28.2817 50 36.0011 50C43.7205 50 50 44.5845 50 37.931C50 35.669 49.2621 33.5586 48.0002 31.7483L49.412 30.5276ZM41.7867 40.4259C41.4367 41.031 40.7307 41.3793 39.9948 41.3793C39.6948 41.3793 39.3888 41.3207 39.1029 41.1983L35.1032 39.4741C34.4252 39.181 33.9973 38.5845 33.9973 37.931V34.4828C33.9973 33.5293 34.8932 32.7586 35.9971 32.7586C37.101 32.7586 37.997 33.5293 37.997 34.4828V36.8655L40.8907 38.1138C41.8786 38.5397 42.2786 39.5759 41.7847 40.4276L41.7867 40.4259Z" fill="#423D3D"/>
</svg>
