<svg width="50" height="50" viewBox="0 0 50 50" fill="none" xmlns="http://www.w3.org/2000/svg">
<path d="M30.2082 4.16667V8.33333C30.2082 8.90625 29.7394 9.375 29.1665 9.375H12.4999C11.927 9.375 11.4583 8.90625 11.4583 8.33333V4.16667C11.4583 3.59375 11.927 3.125 12.4999 3.125H17.7082C17.7082 1.40625 19.1145 0 20.8332 0C22.5519 0 23.9582 1.40625 23.9582 3.125H29.1665C29.7394 3.125 30.2082 3.59375 30.2082 4.16667Z" fill="#423D3D"/>
<path d="M31.5519 27.0417L32.0206 27.4167C32.0206 27.4167 32.0102 27.4167 32.0102 27.4063L32.5727 27.8438L36.9581 31.2917C36.9477 31.2917 36.9373 31.2813 36.9269 31.2708L37.6248 31.8229C37.6143 31.8021 37.6039 31.8021 37.5935 31.7813L38.0935 32.1771L47.4164 20.3333L40.8539 15.2083L31.5519 27.0417Z" fill="#423D3D"/>
<path d="M48.4164 12.3542C46.6039 10.9271 43.979 11.2396 42.5623 13.0521L42.1456 13.5833L48.7081 18.7083L49.1039 18.1979C50.531 16.3958 50.2185 13.7708 48.4164 12.3542Z" fill="#423D3D"/>
<path d="M28.729 27.75C28.7394 27.7083 28.7603 27.6667 28.7707 27.625C28.7811 27.5625 28.8019 27.5104 28.8228 27.4479C28.8644 27.3125 28.9165 27.1771 28.979 27.0521C28.9998 27.0104 29.0207 26.9792 29.0415 26.9375C29.1353 26.7708 29.229 26.6146 29.3436 26.4688C29.354 26.4688 29.354 26.4688 29.354 26.4688C29.3853 26.4167 29.4269 26.3646 29.4686 26.3229L40.9269 11.7604C41.1456 11.4792 41.406 11.2188 41.6664 10.9792V6.25C41.6664 5.67708 41.1977 5.20833 40.6248 5.20833H32.2915V8.33333C32.2915 10.0521 30.8852 11.4583 29.1665 11.4583H12.4999C10.7812 11.4583 9.37495 10.0521 9.37495 8.33333V5.20833H1.04166C0.468747 5.20833 0 5.67708 0 6.25V48.9583C0 49.5313 0.468747 50 1.04166 50H40.6248C41.1977 50 41.6664 49.5313 41.6664 48.9583V31.0208L39.1456 34.2292C39.1352 34.2396 39.1144 34.2604 39.0935 34.2708C38.979 34.4167 38.854 34.5417 38.7185 34.6563C38.6873 34.6875 38.656 34.7188 38.6248 34.7396C38.4477 34.875 38.2602 35 38.0623 35.1042H38.0519C38.0519 35.1042 38.0519 35.1042 38.0415 35.1042L31.604 38.25C31.1873 38.4583 30.7082 38.5625 30.2394 38.5625C29.5415 38.5625 28.854 38.3229 28.3019 37.8958C27.3644 37.1563 26.9269 35.9271 27.1874 34.7708L28.729 27.75ZM11.4583 44.7917C11.4583 45.3646 10.9895 45.8333 10.4166 45.8333H4.16664C3.59373 45.8333 3.12498 45.3646 3.12498 44.7917V38.5417C3.12498 37.9688 3.59373 37.5 4.16664 37.5H10.4166C10.9895 37.5 11.4583 37.9688 11.4583 38.5417V44.7917ZM11.4583 32.2917C11.4583 32.8646 10.9895 33.3333 10.4166 33.3333H4.16664C3.59373 33.3333 3.12498 32.8646 3.12498 32.2917V26.0417C3.12498 25.4688 3.59373 25 4.16664 25H10.4166C10.9895 25 11.4583 25.4688 11.4583 26.0417V32.2917ZM11.4583 19.7917C11.4583 20.3646 10.9895 20.8333 10.4166 20.8333H4.16664C3.59373 20.8333 3.12498 20.3646 3.12498 19.7917V13.5417C3.12498 12.9688 3.59373 12.5 4.16664 12.5H10.4166C10.9895 12.5 11.4583 12.9688 11.4583 13.5417V19.7917ZM15.6249 15.625H32.2915C32.8644 15.625 33.3332 16.0938 33.3332 16.6667C33.3332 17.2396 32.8644 17.7083 32.2915 17.7083H15.6249C15.052 17.7083 14.5833 17.2396 14.5833 16.6667C14.5833 16.0938 15.052 15.625 15.6249 15.625ZM32.2915 40.625C32.8644 40.625 33.3332 41.0938 33.3332 41.6667C33.3332 42.2396 32.8644 42.7083 32.2915 42.7083H15.6249C15.052 42.7083 14.5833 42.2396 14.5833 41.6667C14.5833 41.0938 15.052 40.625 15.6249 40.625H32.2915ZM26.0936 30.2083H15.6249C15.052 30.2083 14.5833 29.7396 14.5833 29.1667C14.5833 28.5938 15.052 28.125 15.6249 28.125H26.0936C26.6665 28.125 27.1353 28.5938 27.1353 29.1667C27.1353 29.7396 26.6665 30.2083 26.0936 30.2083Z" fill="#423D3D"/>
<path d="M29.5937 36.2604C29.7812 36.4062 30.0103 36.4792 30.2395 36.4792C30.3958 36.4792 30.552 36.4479 30.6978 36.375L36.5728 33.5L34.7499 32.0833L32.4478 30.2708L30.6249 28.8333L29.2187 35.2187C29.1353 35.6042 29.2812 36.0104 29.5937 36.2604Z" fill="#423D3D"/>
</svg>
