<svg width="50" height="50" viewBox="0 0 50 50" fill="none" xmlns="http://www.w3.org/2000/svg">
<path d="M0 25.3562V22.3195C0.00106066 21.6783 0.226085 21.0577 0.636121 20.5651C1.04616 20.0725 1.61539 19.7388 2.2453 19.6219L5.81552 18.9943C6.23265 17.4375 6.85148 15.9419 7.65625 14.5456L5.57784 11.5798C5.20144 11.0485 5.02583 10.4006 5.08233 9.75177C5.13883 9.1029 5.42376 8.49521 5.88631 8.03704L8.02541 5.89619C8.48384 5.43403 9.09135 5.1498 9.73967 5.09419C10.388 5.03857 11.035 5.21518 11.5653 5.59253L14.5287 7.67264C15.9255 6.86701 17.4215 6.24768 18.9788 5.8304L19.6059 2.25726C19.7207 1.62413 20.0539 1.05141 20.5474 0.638914C21.0409 0.226422 21.6633 0.000315061 22.3063 0H25.3405C25.9847 0.00214025 26.6077 0.230936 27.1005 0.646359C27.5932 1.06178 27.9243 1.63738 28.0358 2.27244L28.6629 5.84558C30.2132 6.26446 31.7024 6.88376 33.0928 7.68783L36.0562 5.60771C36.5865 5.23036 37.2335 5.05375 37.8818 5.10937C38.5301 5.16498 39.1377 5.44921 39.5961 5.91138L41.7352 8.05223C42.1977 8.51039 42.4827 9.11808 42.5392 9.76695C42.5957 10.4158 42.4201 11.0637 42.0437 11.595L39.9652 14.5608C40.77 15.957 41.3889 17.4526 41.806 19.0095L45.3762 19.6371C46.0125 19.749 46.5889 20.0819 47.0042 20.5771C47.4195 21.0724 47.647 21.6983 47.6468 22.3448V25.3815C47.6362 26.0209 47.4032 26.6366 46.9878 27.1225C46.5724 27.6084 46.0007 27.9342 45.3711 28.0436L41.8009 28.6712C41.715 28.9951 41.6138 29.314 41.5076 29.6328C41.4865 29.6991 41.4486 29.7588 41.3977 29.8062C41.3467 29.8535 41.2845 29.887 41.2169 29.9033C41.1493 29.9195 41.0786 29.9181 41.0118 29.8991C40.9449 29.8801 40.884 29.8442 40.835 29.7948L38.1498 27.1073C37.8674 26.8219 37.6503 26.4787 37.5132 26.1013C37.3761 25.7238 37.3224 25.3211 37.3558 24.9209C37.4995 23.0632 37.2577 21.1958 36.6457 19.4361C36.0337 17.6764 35.0647 16.0624 33.7995 14.6954C32.5344 13.3285 31.0004 12.2382 29.2941 11.493C27.5877 10.7478 25.7458 10.3638 23.8841 10.3652C23.4441 10.3652 23.0042 10.3652 22.5693 10.4309C21.7132 10.5088 20.8995 10.8389 20.2307 11.3793C19.562 11.9198 19.0683 12.6465 18.8119 13.4676C18.5774 14.2636 18.5646 15.1087 18.7749 15.9114C18.9852 16.7142 19.4107 17.4442 20.0054 18.0226L22.9485 20.9682L20.9561 22.9825L17.9978 20.0218C17.1838 19.1827 16.0803 18.6867 14.913 18.635C13.7983 18.5964 12.7108 18.985 11.8726 19.7214C11.0343 20.4578 10.5084 21.4866 10.4022 22.5979C10.2193 24.4756 10.4314 26.3709 11.0247 28.1616C11.6179 29.9524 12.5793 31.599 13.8469 32.9954C15.1145 34.3918 16.6603 35.5071 18.3846 36.2695C20.109 37.0318 21.9737 37.4244 23.8588 37.4219C24.2077 37.4219 24.5567 37.4219 24.9056 37.3814H25.1281C25.4898 37.3769 25.8489 37.4439 26.1847 37.5785C26.5205 37.7131 26.8265 37.9127 27.0851 38.1658L29.7805 40.8634C29.8299 40.9124 29.8658 40.9733 29.8848 41.0403C29.9037 41.1072 29.9052 41.1779 29.8889 41.2456C29.8726 41.3132 29.8392 41.3755 29.7919 41.4265C29.7446 41.4775 29.6849 41.5154 29.6187 41.5365C29.3001 41.6428 28.9815 41.739 28.6629 41.8301L28.0358 45.4083C27.924 46.0451 27.5914 46.622 27.0966 47.0376C26.6018 47.4532 25.9764 47.681 25.3304 47.6807H22.2962C21.6502 47.681 21.0248 47.4532 20.5299 47.0376C20.0351 46.622 19.7025 46.0451 19.5907 45.4083L18.9636 41.8351C17.4081 41.4174 15.9138 40.7981 14.5186 39.9929L11.5552 42.073C11.0243 42.4497 10.377 42.6255 9.72862 42.5689C9.08028 42.5124 8.47309 42.2272 8.0153 41.7643L5.8762 39.6234C5.41364 39.1653 5.12871 38.5576 5.07221 37.9087C5.01572 37.2599 5.19132 36.612 5.56773 36.0807L7.64614 33.1148C6.84178 31.7184 6.22297 30.2229 5.8054 28.6661L2.2453 28.0436C1.6171 27.927 1.04917 27.5949 0.63934 27.1043C0.229505 26.6138 0.00341256 25.9956 0 25.3562ZM35.8034 29.4506L48.6835 42.3362C49.1187 42.773 49.4598 43.2945 49.6858 43.8684C49.9118 44.4423 50.0179 45.0565 49.9975 45.673C49.9772 46.2896 49.8307 46.8954 49.5673 47.4531C49.3039 48.0108 48.9291 48.5085 48.466 48.9156C47.5751 49.6655 46.434 50.0509 45.2712 49.9946C44.1084 49.9383 43.0098 49.4445 42.1954 48.612L29.4215 35.8327C28.7996 35.2126 28.0508 34.7349 27.2266 34.4326C26.4025 34.1303 25.5226 34.0105 24.6477 34.0815C23.1616 34.1983 21.668 33.9874 20.2722 33.4639C18.8764 32.9404 17.6122 32.1169 16.5688 31.0514C15.5255 29.9859 14.7282 28.7044 14.2333 27.2972C13.7384 25.89 13.5579 24.3912 13.7044 22.9066C13.7281 22.7003 13.8094 22.5049 13.9391 22.3428C14.0688 22.1807 14.2416 22.0586 14.4376 21.9904C14.6335 21.9222 14.8447 21.9107 15.0469 21.9573C15.2491 22.0039 15.4341 22.1066 15.5805 22.2537L18.903 25.5789C19.451 26.1268 20.194 26.4346 20.9687 26.4346C21.7434 26.4346 22.4864 26.1268 23.0345 25.5789L25.563 23.0483C26.1105 22.4998 26.418 21.7562 26.418 20.9808C26.418 20.2055 26.1105 19.4619 25.563 18.9134L22.2406 15.5882C22.0936 15.4417 21.9909 15.2566 21.9444 15.0542C21.8978 14.8518 21.9093 14.6404 21.9774 14.4443C22.0456 14.2482 22.1676 14.0753 22.3296 13.9455C22.4915 13.8157 22.6868 13.7342 22.8929 13.7105C24.3764 13.5646 25.8738 13.746 27.2797 14.2419C28.6855 14.7379 29.9656 15.5364 31.0297 16.5811C32.0938 17.6258 32.9161 18.8913 33.4385 20.2885C33.961 21.6858 34.171 23.1806 34.0536 24.6679C33.9819 25.5443 34.1012 26.4259 34.4033 27.2517C34.7054 28.0774 35.1831 28.8277 35.8034 29.4506ZM46.0589 44.1683L32.9108 31.0094C32.6518 30.7705 32.3106 30.641 31.9585 30.648C31.6064 30.6549 31.2706 30.7978 31.0212 31.0467C30.7718 31.2956 30.6282 31.6313 30.6204 31.9837C30.6125 32.3361 30.741 32.6779 30.979 32.9377L44.1271 46.0966C44.2516 46.2324 44.4022 46.3417 44.5699 46.4177C44.7376 46.4938 44.919 46.5352 45.1031 46.5393C45.2871 46.5434 45.4702 46.5102 45.6411 46.4417C45.812 46.3732 45.9674 46.2708 46.0977 46.1406C46.2281 46.0105 46.3308 45.8553 46.3997 45.6844C46.4686 45.5135 46.5023 45.3304 46.4987 45.1462C46.495 44.9619 46.4542 44.7803 46.3786 44.6123C46.303 44.4442 46.1943 44.2932 46.0589 44.1683Z" fill="#423D3D"/>
</svg>
