<svg xmlns="http://www.w3.org/2000/svg" fill="#757575" data-name="Layer 1" viewBox="0 0 100 125" x="0px" y="0px"><title>Artboard 6</title><path d="M.56,50.69v-6A5.43,5.43,0,0,1,5,39.36l7.06-1.24a36.52,36.52,0,0,1,3.64-8.79l-4.11-5.86a5.43,5.43,0,0,1,.61-7l4.23-4.23a5.43,5.43,0,0,1,7-.6l5.86,4.11a36.56,36.56,0,0,1,8.8-3.64l1.24-7.06A5.43,5.43,0,0,1,44.67.59h6A5.43,5.43,0,0,1,56,5.08l1.24,7.06A36.55,36.55,0,0,1,66,15.78l5.86-4.11a5.43,5.43,0,0,1,7,.6l4.23,4.23a5.43,5.43,0,0,1,.61,7l-4.11,5.86a36.52,36.52,0,0,1,3.64,8.79l7.06,1.24a5.43,5.43,0,0,1,4.49,5.35v6A5.43,5.43,0,0,1,90.28,56l-7.06,1.24c-.17.64-.37,1.27-.58,1.9a.8.8,0,0,1-1.33.32L76,54.15a5.49,5.49,0,0,1-1.57-4.32A26.7,26.7,0,0,0,47.79,21.07c-.87,0-1.74,0-2.6.13a8.6,8.6,0,0,0-7.43,6,9,9,0,0,0,2.36,9l5.82,5.82L42,46l-5.85-5.85a9.06,9.06,0,0,0-6.1-2.74,8.66,8.66,0,0,0-8.92,7.83A26.7,26.7,0,0,0,47.74,74.53c.69,0,1.38,0,2.07-.08l.44,0A5.44,5.44,0,0,1,54.12,76l5.33,5.33a.8.8,0,0,1-.32,1.33c-.63.21-1.26.4-1.89.58L56,90.31a5.43,5.43,0,0,1-5.35,4.49h-6a5.43,5.43,0,0,1-5.35-4.49l-1.24-7.06a36.57,36.57,0,0,1-8.79-3.64l-5.86,4.11a5.43,5.43,0,0,1-7-.61l-4.23-4.23a5.43,5.43,0,0,1-.61-7l4.11-5.86a36.6,36.6,0,0,1-3.64-8.79L5,56A5.43,5.43,0,0,1,.56,50.69Zm70.8,8.09L96.83,84.24a8.92,8.92,0,0,1-.43,13A9.13,9.13,0,0,1,84,96.64L58.74,71.39a12,12,0,0,0-9.44-3.46A20.16,20.16,0,0,1,27.66,45.85a2.18,2.18,0,0,1,3.71-1.29l6.57,6.57a5.78,5.78,0,0,0,8.17,0l5-5a5.78,5.78,0,0,0,0-8.17l-6.57-6.57a2.18,2.18,0,0,1,1.29-3.71A20.16,20.16,0,0,1,67.9,49.33,12,12,0,0,0,71.36,58.78ZM91.64,87.86l-26-26a2.7,2.7,0,0,0-3.82,3.81l26,26a2.7,2.7,0,1,0,3.82-3.81Z"/></svg>