<svg width="50" height="50" viewBox="0 0 50 50" fill="none" xmlns="http://www.w3.org/2000/svg">
<path d="M45.3125 19.6429C42.7273 19.6429 40.625 22.0455 40.625 25C40.625 27.9545 42.7273 30.3571 45.3125 30.3571C47.8977 30.3571 50 27.9545 50 25C50 22.0455 47.8977 19.6429 45.3125 19.6429Z" fill="#423D3D"/>
<path d="M32.8125 10.7143C35.3977 10.7143 37.5 8.31161 37.5 5.35714C37.5 2.40268 35.3977 0 32.8125 0C30.2273 0 28.125 2.40268 28.125 5.35714C28.125 8.31161 30.2273 10.7143 32.8125 10.7143Z" fill="#423D3D"/>
<path d="M32.8125 39.2857C30.2273 39.2857 28.125 41.6884 28.125 44.6428C28.125 47.5973 30.2273 50 32.8125 50C35.3977 50 37.5 47.5973 37.5 44.6428C37.5 41.6884 35.3977 39.2857 32.8125 39.2857Z" fill="#423D3D"/>
<path d="M42.1875 17.8571C44.7727 17.8571 46.875 15.4545 46.875 12.5C46.875 9.54553 44.7727 7.14285 42.1875 7.14285C39.6023 7.14285 37.5 9.54553 37.5 12.5C37.5 15.4545 39.6023 17.8571 42.1875 17.8571Z" fill="#423D3D"/>
<path d="M42.1875 32.1429C39.6023 32.1429 37.5 34.5455 37.5 37.5C37.5 40.4545 39.6023 42.8571 42.1875 42.8571C44.7727 42.8571 46.875 40.4545 46.875 37.5C46.875 34.5455 44.7727 32.1429 42.1875 32.1429Z" fill="#423D3D"/>
<path d="M20.3125 0C9.44844 0 0 11.5491 0 25C0 38.4509 9.44844 50 20.3125 50C22.9008 50 25 47.6009 25 44.6429H21.875C19.2898 44.6429 17.1875 42.2402 17.1875 39.2857C17.1875 38.3 17.8875 37.5 18.75 37.5C19.6125 37.5 20.3125 38.3 20.3125 39.2857C20.3125 40.2705 21.0133 41.0714 21.875 41.0714H25V33.9286H18.75C17.8875 33.9286 17.1875 33.1286 17.1875 32.1429C17.1875 31.1571 17.8875 30.3571 18.75 30.3571H25V25H18.75C16.1648 25 14.0625 22.5973 14.0625 19.6429C14.0625 18.6571 14.7625 17.8571 15.625 17.8571C16.4875 17.8571 17.1875 18.6571 17.1875 19.6429C17.1875 20.6277 17.8883 21.4286 18.75 21.4286H25V10.7143H21.875C21.0133 10.7143 20.3125 11.5152 20.3125 12.5C20.3125 13.4857 19.6125 14.2857 18.75 14.2857C17.8875 14.2857 17.1875 13.4857 17.1875 12.5C17.1875 9.54554 19.2898 7.14286 21.875 7.14286H25V5.35714C25 2.39911 22.9008 0 20.3125 0ZM6.70312 16.5982C7.28906 15.9286 8.33594 15.9286 8.91406 16.5893C9.21094 16.9286 9.375 17.3839 9.375 17.8571C9.375 18.3214 9.21094 18.7857 8.91406 19.1161C8.625 19.4554 8.22656 19.6429 7.8125 19.6429C7.40547 19.6429 7 19.4554 6.70312 19.1161C6.41406 18.7857 6.25 18.3214 6.25 17.8571C6.25 17.3839 6.41406 16.9286 6.70312 16.5982ZM4.6875 28.5714H3.125C2.2625 28.5714 1.5625 27.7714 1.5625 26.7857C1.5625 25.8 2.2625 25 3.125 25H4.6875C5.54922 25 6.25 24.1991 6.25 23.2143C6.25 22.2286 6.95 21.4286 7.8125 21.4286C8.675 21.4286 9.375 22.2286 9.375 23.2143C9.375 26.1687 7.27266 28.5714 4.6875 28.5714ZM12.5 39.2857C9.91484 39.2857 7.8125 36.883 7.8125 33.9286C7.8125 32.9429 8.5125 32.1429 9.375 32.1429C10.2375 32.1429 10.9375 32.9429 10.9375 33.9286C10.9375 34.9134 11.6383 35.7143 12.5 35.7143C13.3625 35.7143 14.0625 36.5143 14.0625 37.5C14.0625 38.4857 13.3625 39.2857 12.5 39.2857ZM15.1641 30.8839C15.4609 31.2143 15.625 31.6696 15.625 32.1429C15.625 32.6071 15.4609 33.0714 15.1641 33.4018C14.875 33.7411 14.4766 33.9286 14.0625 33.9286C13.6555 33.9286 13.25 33.7411 12.9609 33.4107C12.6641 33.0714 12.5 32.6161 12.5 32.1429C12.5 31.6696 12.6641 31.2143 12.9531 30.8839C13.5391 30.2143 14.5859 30.2143 15.1641 30.8839ZM14.0625 12.5C13.2008 12.5 12.5 13.3009 12.5 14.2857C12.5 15.2714 11.8 16.0714 10.9375 16.0714C10.075 16.0714 9.375 15.2714 9.375 14.2857C9.375 11.3312 11.4773 8.92857 14.0625 8.92857C14.925 8.92857 15.625 9.72857 15.625 10.7143C15.625 11.7 14.925 12.5 14.0625 12.5Z" fill="#423D3D"/>
<path d="M29.6875 26.7857H39.2687C39.1391 26.2134 39.0625 25.6179 39.0625 25C39.0625 24.3822 39.1391 23.7866 39.2687 23.2143H29.6875C28.825 23.2143 28.125 24.0143 28.125 25C28.125 25.9857 28.825 26.7857 29.6875 26.7857Z" fill="#423D3D"/>
<path d="M28.9883 14.0973C29.2133 14.2259 29.4516 14.2857 29.6859 14.2857C30.2594 14.2857 30.8109 13.925 31.0851 13.2991L31.5047 12.3402C30.45 12.083 29.4969 11.5179 28.7125 10.7357L28.2898 11.7018C27.9039 12.5839 28.2164 13.6563 28.9883 14.0973Z" fill="#423D3D"/>
<path d="M28.9883 35.9027C28.2164 36.3438 27.9031 37.4161 28.2891 38.2991L28.7117 39.2652C29.4961 38.483 30.45 37.9179 31.5039 37.6607L31.0844 36.7018C30.6992 35.8197 29.7633 35.4598 28.9883 35.9027Z" fill="#423D3D"/>
<path d="M37.4804 32.8134L30.3867 28.7598C29.6133 28.3179 28.6758 28.6768 28.2898 29.5589C27.9039 30.4411 28.2164 31.5134 28.989 31.9554L36.0804 36.008C36.3062 34.8027 36.7945 33.7089 37.4804 32.8134Z" fill="#423D3D"/>
</svg>
