<svg xmlns="http://www.w3.org/2000/svg" xmlns:xlink="http://www.w3.org/1999/xlink" version="1.1" x="0px" y="0px" viewBox="0 -5 64 80" fill="#757575" enable-background="new 0 0 64 64" xml:space="preserve"><metadata><?xpacket begin="&#65279;" id="W5M0MpCehiHzreSzNTczkc9d"?><x:xmpmeta xmlns:x="adobe:ns:meta/" x:xmptk="Adobe XMP Core 5.3-c011 66.145661, 2012/02/06-14:56:27        "/><?xpacket end="w"?></metadata><g><g><path d="M58,26c-3.309,0-6,2.691-6,6s2.691,6,6,6s6-2.691,6-6S61.309,26,58,26z"/><path d="M42,16c3.309,0,6-2.691,6-6s-2.691-6-6-6s-6,2.691-6,6S38.691,16,42,16z"/><path d="M42,48c-3.309,0-6,2.691-6,6s2.691,6,6,6s6-2.691,6-6S45.309,48,42,48z"/><path d="M54,24c3.309,0,6-2.691,6-6s-2.691-6-6-6s-6,2.691-6,6S50.691,24,54,24z"/><path d="M54,40c-3.309,0-6,2.691-6,6s2.691,6,6,6s6-2.691,6-6S57.309,40,54,40z"/><path d="M26,4C12.094,4,0,16.935,0,32s12.094,28,26,28c3.313,0,6-2.687,6-6h-4c-3.309,0-6-2.691-6-6c0-1.104,0.896-2,2-2    s2,0.896,2,2c0,1.103,0.897,2,2,2h4v-8h-8c-1.104,0-2-0.896-2-2s0.896-2,2-2h8v-6h-8c-3.309,0-6-2.691-6-6c0-1.104,0.896-2,2-2    s2,0.896,2,2c0,1.103,0.897,2,2,2h8V16h-4c-1.103,0-2,0.897-2,2c0,1.104-0.896,2-2,2s-2-0.896-2-2c0-3.309,2.691-6,6-6h4v-2    C32,6.687,29.313,4,26,4z M8.58,22.59c0.75-0.75,2.09-0.75,2.83-0.01C11.79,22.96,12,23.47,12,24c0,0.52-0.21,1.04-0.59,1.41    C11.04,25.79,10.53,26,10,26c-0.521,0-1.04-0.21-1.42-0.59C8.21,25.04,8,24.52,8,24C8,23.47,8.21,22.96,8.58,22.59z M6,36H4    c-1.104,0-2-0.896-2-2s0.896-2,2-2h2c1.103,0,2-0.897,2-2c0-1.104,0.896-2,2-2s2,0.896,2,2C12,33.309,9.309,36,6,36z M16,48    c-3.309,0-6-2.691-6-6c0-1.104,0.896-2,2-2s2,0.896,2,2c0,1.103,0.897,2,2,2c1.104,0,2,0.896,2,2S17.104,48,16,48z M19.41,38.59    C19.79,38.96,20,39.47,20,40c0,0.52-0.21,1.04-0.59,1.41C19.04,41.79,18.53,42,18,42c-0.521,0-1.04-0.21-1.41-0.58    C16.21,41.04,16,40.53,16,40s0.21-1.04,0.58-1.41C17.33,37.84,18.67,37.84,19.41,38.59z M18,18c-1.103,0-2,0.897-2,2    c0,1.104-0.896,2-2,2s-2-0.896-2-2c0-3.309,2.691-6,6-6c1.104,0,2,0.896,2,2S19.104,18,18,18z"/><path d="M38,34h12.264C50.098,33.359,50,32.692,50,32s0.098-1.359,0.264-2H38c-1.104,0-2,0.896-2,2S36.896,34,38,34z"/><path d="M37.105,19.789C37.393,19.933,37.698,20,37.998,20c0.734,0,1.44-0.404,1.791-1.105l0.537-1.074    c-1.35-0.288-2.57-0.921-3.574-1.797l-0.541,1.082C35.717,18.094,36.117,19.295,37.105,19.789z"/><path d="M37.105,44.211c-0.988,0.494-1.389,1.695-0.895,2.684l0.541,1.082c1.004-0.876,2.225-1.509,3.574-1.797l-0.537-1.074    C39.295,44.118,38.097,43.715,37.105,44.211z"/><path d="M36.211,26.895C36.562,27.596,37.268,28,38.002,28c0.3,0,0.605-0.067,0.893-0.211l9.08-4.54    c-0.878-1.003-1.503-2.228-1.792-3.577l-9.077,4.539C36.117,24.705,35.717,25.906,36.211,26.895z"/><path d="M47.975,40.751l-9.08-4.54c-0.99-0.495-2.19-0.093-2.684,0.895c-0.494,0.988-0.094,2.189,0.895,2.684l9.077,4.539    C46.472,42.979,47.097,41.754,47.975,40.751z"/></g></g></svg>