<svg xmlns="http://www.w3.org/2000/svg" data-name="Layer 1" fill="yellow" viewBox="0 -10 100 125" x="0px" y="0px"><defs><style>.cls-1{fill-rule:evenodd;}</style></defs><path class="cls-1" d="M53.627,4.556,65.485,29.988a3.894,3.894,0,0,0,3.14,2.282l27.853,3.423a4,4,0,0,1,2.241,6.9L78.2,61.73A3.9,3.9,0,0,0,77,65.418L82.35,92.965a4,4,0,0,1-5.866,4.264l-24.545-13.6a3.886,3.886,0,0,0-3.878,0l-24.545,13.6a4,4,0,0,1-5.871-4.264L23,65.418a3.9,3.9,0,0,0-1.2-3.688L1.281,42.589a4,4,0,0,1,2.236-6.9L31.375,32.27a3.91,3.91,0,0,0,3.14-2.282L46.373,4.556a4.01,4.01,0,0,1,7.254,0Z"/></svg>